<svg xmlns="http://www.w3.org/2000/svg" width="24" height="24" viewBox="0 0 24 24" fill="none" stroke-width="1.5" class="solar solar-branching-paths-down-linear"><path d="M2 12C2 7.28595 2 4.92893 3.46447 3.46447C4.92893 2 7.28595 2 12 2C16.714 2 19.0711 2 20.5355 3.46447C22 4.92893 22 7.28595 22 12C22 16.714 22 19.0711 20.5355 20.5355C19.0711 22 16.714 22 12 22C7.28595 22 4.92893 22 3.46447 20.5355C2 19.0711 2 16.714 2 12Z" stroke="currentColor"/>
<path d="M16 16.5H18M16.5 18L18 16.5L16.5 15" stroke="currentColor" stroke-linecap="round" stroke-linejoin="round"/>
<path d="M16 16.5C13.7909 16.5 12 14.7091 12 12.5V6.5" stroke="currentColor" stroke-linecap="round"/>
<path d="M8 16.5H6M7.5 18L6 16.5L7.5 15" stroke="currentColor" stroke-linecap="round" stroke-linejoin="round"/>
<path d="M8 16.5C10.2091 16.5 12 14.7091 12 12.5V6.5" stroke="currentColor" stroke-linecap="round"/></svg>