<svg xmlns="http://www.w3.org/2000/svg" width="24" height="24" viewBox="0 0 24 24" fill="none" stroke-width="1.5" class="solar solar-calendar-linear"><path d="M2 12C2 8.22876 2 6.34315 3.17157 5.17157C4.34315 4 6.22876 4 10 4H14C17.7712 4 19.6569 4 20.8284 5.17157C22 6.34315 22 8.22876 22 12V14C22 17.7712 22 19.6569 20.8284 20.8284C19.6569 22 17.7712 22 14 22H10C6.22876 22 4.34315 22 3.17157 20.8284C2 19.6569 2 17.7712 2 14V12Z" stroke="currentColor"/>
<path d="M7 4V2.5" stroke="currentColor" stroke-linecap="round"/>
<path d="M17 4V2.5" stroke="currentColor" stroke-linecap="round"/>
<path d="M2.5 9H21.5" stroke="currentColor" stroke-linecap="round"/>
<path d="M17 13H17.0001" stroke="currentColor" stroke-linecap="round" stroke-linejoin="round"/>
<path d="M12 13H12.0001" stroke="currentColor" stroke-linecap="round" stroke-linejoin="round"/>
<path d="M7 13H7.0001" stroke="currentColor" stroke-linecap="round" stroke-linejoin="round"/>
<path d="M17 17.0234H17.0001" stroke="currentColor" stroke-linecap="round" stroke-linejoin="round"/>
<path d="M12 17.0234H12.0001" stroke="currentColor" stroke-linecap="round" stroke-linejoin="round"/>
<path d="M7 17.0234H7.0001" stroke="currentColor" stroke-linecap="round" stroke-linejoin="round"/></svg>