<svg xmlns="http://www.w3.org/2000/svg" width="24" height="24" viewBox="0 0 24 24" fill="none" stroke-width="1.5" class="solar solar-hearts-linear"><path d="M21.1474 12.9177C21.6735 13.4689 22 14.2243 22 15.0595C22 17.6018 19.7893 18.9566 18.171 20.1692C17.6 20.5971 17.05 21 16.5 21C15.95 21 15.4 20.5971 14.829 20.1692C14.6903 20.0653 14.5474 19.9604 14.4018 19.8538M21.1474 12.9177C20.0718 11.7909 18.1619 11.5171 16.5 13.1584C14.0251 10.7142 11 12.5172 11 15.0595C11 17.3841 12.8482 18.7158 14.4018 19.8538M21.1474 12.9177C21.6771 11.8105 22 10.5602 22 9.11901C22 4.03436 16.4998 0.428415 12 5.31675C7.50016 0.428415 2 4.03436 2 9.11901C2 14.2037 6.01943 16.9132 8.96173 19.3384C10 20.1942 11 21 12 21C12.7942 21 13.5884 20.4917 14.4018 19.8538" stroke="currentColor" stroke-linejoin="round"/></svg>