<svg xmlns="http://www.w3.org/2000/svg" width="24" height="24" viewBox="0 0 24 24" fill="none" stroke-width="1.5" class="solar solar-key-minimalistic-linear"><path d="M8.85996 19.3261L7.61956 20.5665C7.30164 20.8844 6.85645 21.0406 6.4096 20.9909L4.32101 20.7589C4.09834 20.7341 3.89072 20.6343 3.73229 20.4759L3.52408 20.2677C3.36566 20.1093 3.26587 19.9017 3.24113 19.679L3.00906 17.5904C2.95941 17.1435 3.11558 16.6984 3.43349 16.3804L7.14558 12.6684C7.41492 12.399 7.49906 12 7.40432 11.6311C6.8169 9.34366 7.41866 6.81385 9.20961 5.02291C11.9068 2.3257 16.2799 2.3257 18.9771 5.02291C21.6743 7.72013 21.6743 12.0932 18.9771 14.7904C17.1861 16.5813 14.6563 17.1831 12.3689 16.5957C12 16.5009 11.6013 16.5848 11.3319 16.8541L8.85996 19.3261ZM8.85996 19.3261L7.11091 17.5962M12.5858 8.58579C13.3668 7.80474 14.6332 7.80474 15.4142 8.58579C16.1953 9.36683 16.1953 10.6332 15.4142 11.4142C14.6332 12.1953 13.3668 12.1953 12.5858 11.4142C11.8047 10.6332 11.8047 9.36683 12.5858 8.58579Z" stroke="currentColor" stroke-linecap="round"/></svg>