<svg xmlns="http://www.w3.org/2000/svg" width="24" height="24" viewBox="0 0 24 24" fill="none" class="iconsax iconsax-calendar-edit iconsax-line-oval" stroke-width="1.5"><path d="M8 2V5" stroke="currentColor" stroke-miterlimit="10" stroke-linecap="round" stroke-linejoin="round"></path><path d="M16 2V5" stroke="currentColor" stroke-miterlimit="10" stroke-linecap="round" stroke-linejoin="round"></path><path d="M3.5 9.08997H20.5" stroke="currentColor" stroke-miterlimit="10" stroke-linecap="round" stroke-linejoin="round"></path><path d="M19.21 15.77L15.6701 19.31C15.5301 19.45 15.4 19.71 15.37 19.9L15.18 21.25C15.11 21.74 15.45 22.0801 15.94 22.0101L17.29 21.82C17.48 21.79 17.75 21.66 17.88 21.52L21.4201 17.9801C22.0301 17.3701 22.3201 16.6601 21.4201 15.7601C20.5301 14.8701 19.82 15.16 19.21 15.77Z" stroke="currentColor" stroke-miterlimit="10" stroke-linecap="round" stroke-linejoin="round"></path><path d="M18.7001 16.28C19.0001 17.36 19.8401 18.2 20.9201 18.5" stroke="currentColor" stroke-miterlimit="10" stroke-linecap="round" stroke-linejoin="round"></path><path d="M12 22H8C4.5 22 3 20 3 17V8.5C3 5.5 4.5 3.5 8 3.5H16C19.5 3.5 21 5.5 21 8.5V12" stroke="currentColor" stroke-miterlimit="10" stroke-linecap="round" stroke-linejoin="round"></path><path d="M11.9955 13.7H12.0045" stroke="currentColor" stroke-linecap="round" stroke-linejoin="round"></path><path d="M8.29431 13.7H8.30329" stroke="currentColor" stroke-linecap="round" stroke-linejoin="round"></path><path d="M8.29431 16.7H8.30329" stroke="currentColor" stroke-linecap="round" stroke-linejoin="round"></path></svg>
